<svg width="32" height="32" viewBox="0 0 32 32" fill="none" xmlns="http://www.w3.org/2000/svg">
<g clip-path="url(#clip0_15_2)">
<path d="M24 0H8C3.58172 0 0 3.58172 0 8V24C0 28.4183 3.58172 32 8 32H24C28.4183 32 32 28.4183 32 24V8C32 3.58172 28.4183 0 24 0Z" fill="#050506"/>
<path d="M20 6H12C8.68629 6 6 8.68629 6 12V20C6 23.3137 8.68629 26 12 26H20C23.3137 26 26 23.3137 26 20V12C26 8.68629 23.3137 6 20 6Z" stroke="#C9A55C" stroke-width="1.5"/>
<path d="M16 19C17.6569 19 19 17.6569 19 16C19 14.3431 17.6569 13 16 13C14.3431 13 13 14.3431 13 16C13 17.6569 14.3431 19 16 19Z" fill="#050506"/>
</g>
<defs>
<clipPath id="clip0_15_2">
<rect width="32" height="32" fill="white"/>
</clipPath>
</defs>
</svg>
